<?xml version="1.0" standalone="no"?>
<!DOCTYPE svg PUBLIC "-//W3C//DTD SVG 20010904//EN"
 "http://www.w3.org/TR/2001/REC-SVG-20010904/DTD/svg10.dtd">
<svg version="1.0" xmlns="http://www.w3.org/2000/svg"
 width="276.000000pt" height="295.000000pt" viewBox="0 0 276.000000 295.000000"
 preserveAspectRatio="xMidYMid meet">

<g transform="translate(0.000000,295.000000) scale(0.100000,-0.100000)"
fill="#ffffff" stroke="none">
<path d="M1354 2926 c-10 -26 4 -48 28 -44 17 2 23 10 23 28 0 18 -6 26 -23
28 -13 2 -25 -3 -28 -12z"/>
<path d="M1194 2846 c-10 -26 4 -48 28 -44 17 2 23 10 23 28 0 18 -6 26 -23
28 -13 2 -25 -3 -28 -12z"/>
<path d="M1514 2846 c-10 -26 4 -48 28 -44 17 2 23 10 23 28 0 18 -6 26 -23
28 -13 2 -25 -3 -28 -12z"/>
<path d="M1035 2770 c-11 -17 5 -50 24 -50 28 0 46 26 31 45 -14 17 -46 20
-55 5z"/>
<path d="M1350 2765 c-20 -24 -3 -55 30 -55 20 0 31 6 35 20 8 25 -10 50 -35
50 -10 0 -23 -7 -30 -15z"/>
<path d="M1674 2765 c-9 -23 3 -45 25 -45 20 0 37 32 26 50 -9 15 -45 12 -51
-5z"/>
<path d="M881 2686 c-16 -20 -3 -46 24 -46 13 0 26 7 29 16 7 19 -10 44 -29
44 -7 0 -18 -6 -24 -14z"/>
<path d="M1189 2684 c-17 -20 -1 -48 31 -52 30 -5 44 11 36 42 -7 30 -45 36
-67 10z"/>
<path d="M1504 2674 c-8 -31 6 -47 36 -42 53 7 47 68 -6 68 -17 0 -25 -7 -30
-26z"/>
<path d="M1831 2686 c-16 -20 -3 -46 24 -46 13 0 26 7 29 16 7 19 -10 44 -29
44 -7 0 -18 -6 -24 -14z"/>
<path d="M722 2603 c-13 -26 -4 -43 24 -43 29 0 41 24 24 45 -17 20 -37 19
-48 -2z"/>
<path d="M1031 2602 c-14 -27 8 -55 40 -50 19 2 24 9 24 33 0 25 -4 31 -27 33
-18 2 -30 -3 -37 -16z"/>
<path d="M1356 2607 c-36 -26 4 -84 42 -61 24 16 27 45 6 61 -10 7 -21 13 -24
13 -3 0 -14 -6 -24 -13z"/>
<path d="M1664 2606 c-10 -27 1 -51 26 -54 31 -5 53 23 39 49 -12 22 -57 25
-65 5z"/>
<path d="M1990 2605 c-17 -21 -5 -45 24 -45 27 0 42 26 25 46 -15 18 -33 18
-49 -1z"/>
<path d="M573 2533 c-18 -7 -16 -52 2 -59 18 -7 45 12 45 32 0 16 -30 33 -47
27z"/>
<path d="M877 2534 c-14 -14 -7 -53 12 -63 26 -14 54 8 49 40 -2 17 -10 25
-28 27 -14 2 -29 0 -33 -4z"/>
<path d="M1196 2524 c-19 -18 -19 -20 -6 -45 12 -21 40 -25 58 -7 18 18 14 46
-7 58 -25 13 -27 13 -45 -6z"/>
<path d="M1516 2527 c-36 -26 4 -84 42 -61 23 15 26 38 7 58 -20 19 -26 20
-49 3z"/>
<path d="M1827 2534 c-14 -14 -7 -53 12 -63 26 -14 54 8 49 40 -2 17 -10 25
-28 27 -14 2 -29 0 -33 -4z"/>
<path d="M2153 2525 c-14 -11 -16 -18 -7 -32 17 -28 48 -23 52 8 4 32 -18 43
-45 24z"/>
<path d="M411 2446 c-16 -20 -3 -46 24 -46 13 0 26 7 29 16 7 19 -10 44 -29
44 -7 0 -18 -6 -24 -14z"/>
<path d="M722 2448 c-28 -28 -1 -75 36 -63 23 7 33 36 20 59 -11 19 -39 21
-56 4z"/>
<path d="M1036 2445 c-9 -9 -16 -20 -16 -25 0 -15 32 -41 48 -38 24 5 39 35
26 56 -15 23 -38 26 -58 7z"/>
<path d="M1672 2448 c-23 -23 -7 -68 24 -68 14 0 44 27 44 40 0 13 -30 40 -44
40 -6 0 -17 -5 -24 -12z"/>
<path d="M1980 2441 c-13 -25 -4 -48 21 -56 38 -12 65 35 37 63 -18 18 -46 14
-58 -7z"/>
<path d="M2304 2446 c-10 -26 4 -48 28 -44 17 2 23 10 23 28 0 18 -6 26 -23
28 -13 2 -25 -3 -28 -12z"/>
<path d="M1350 2435 c-20 -24 -3 -55 30 -55 20 0 31 6 35 20 8 25 -10 50 -35
50 -10 0 -23 -7 -30 -15z"/>
<path d="M560 2365 c-26 -32 13 -81 48 -59 23 15 26 38 7 58 -20 20 -39 20
-55 1z"/>
<path d="M885 2367 c-10 -8 -16 -23 -13 -38 2 -19 9 -24 33 -24 25 0 31 4 33
27 4 34 -26 54 -53 35z"/>
<path d="M1835 2367 c-10 -8 -16 -23 -13 -38 2 -19 9 -24 33 -24 25 0 31 4 33
27 4 34 -26 54 -53 35z"/>
<path d="M2146 2364 c-19 -18 -19 -20 -6 -45 12 -21 40 -25 58 -7 18 18 14 46
-7 58 -25 13 -27 13 -45 -6z"/>
<path d="M244 2356 c-10 -26 4 -48 28 -44 17 2 23 10 23 28 0 18 -6 26 -23 28
-13 2 -25 -3 -28 -12z"/>
<path d="M1190 2355 c-14 -17 -5 -51 16 -59 22 -8 54 11 54 32 0 38 -46 56
-70 27z"/>
<path d="M1512 2358 c-18 -18 -14 -46 7 -58 25 -13 48 -4 56 21 12 38 -35 65
-63 37z"/>
<path d="M2464 2356 c-10 -26 4 -48 28 -44 17 2 23 10 23 28 0 18 -6 26 -23
28 -13 2 -25 -3 -28 -12z"/>
<path d="M107 2292 c-22 -24 -22 -45 1 -65 25 -23 55 -21 78 4 17 19 17 23 3
47 -18 33 -58 40 -82 14z"/>
<path d="M2577 2292 c-21 -23 -22 -46 -1 -66 24 -24 61 -20 80 9 15 23 15 27
0 50 -20 30 -56 33 -79 7z"/>
<path d="M407 2294 c-12 -12 -8 -51 7 -63 24 -20 58 4 54 37 -2 20 -9 28 -28
30 -14 2 -29 0 -33 -4z"/>
<path d="M2300 2285 c-14 -17 -5 -51 16 -59 22 -8 54 11 54 32 0 38 -46 56
-70 27z"/>
<path d="M714 2276 c-10 -27 1 -51 26 -54 31 -5 53 23 39 49 -12 22 -57 25
-65 5z"/>
<path d="M1031 2272 c-14 -27 8 -55 40 -50 19 2 24 9 24 33 0 25 -4 31 -27 33
-18 2 -30 -3 -37 -16z"/>
<path d="M1355 2274 c-19 -20 -16 -43 8 -58 37 -23 77 35 41 61 -23 17 -29 16
-49 -3z"/>
<path d="M1664 2276 c-10 -27 1 -51 26 -54 31 -5 53 23 39 49 -12 22 -57 25
-65 5z"/>
<path d="M1981 2272 c-14 -27 8 -55 40 -50 19 2 24 9 24 33 0 25 -4 31 -27 33
-18 2 -30 -3 -37 -16z"/>
<path d="M219 2231 c-28 -23 -31 -81 -5 -110 48 -53 135 -20 136 52 0 62 -81
99 -131 58z"/>
<path d="M2435 2225 c-58 -58 2 -155 78 -126 38 15 60 54 52 91 -13 60 -86 80
-130 35z"/>
<path d="M562 2198 c-18 -18 -14 -46 7 -58 25 -13 48 -4 56 21 12 38 -35 65
-63 37z"/>
<path d="M882 2201 c-18 -11 -12 -51 10 -64 21 -14 48 7 48 38 0 30 -31 44
-58 26z"/>
<path d="M1195 2194 c-19 -20 -16 -43 8 -58 37 -23 77 35 41 61 -23 17 -29 16
-49 -3z"/>
<path d="M1516 2197 c-36 -26 4 -84 42 -61 23 15 26 38 7 58 -20 19 -26 20
-49 3z"/>
<path d="M1832 2201 c-18 -11 -12 -51 10 -64 21 -14 48 7 48 38 0 30 -31 44
-58 26z"/>
<path d="M2139 2189 c-9 -18 -7 -25 9 -41 16 -16 23 -18 41 -9 23 13 28 40 9
59 -19 19 -46 14 -59 -9z"/>
<path d="M413 2172 c-52 -8 -71 -91 -30 -130 48 -46 127 -12 127 54 0 55 -38
85 -97 76z"/>
<path d="M2304 2170 c-28 -11 -54 -48 -54 -78 0 -33 43 -72 80 -72 38 0 80 39
80 74 0 29 -36 72 -65 79 -11 3 -30 2 -41 -3z"/>
<path d="M722 2118 c-28 -28 -1 -75 38 -63 14 4 20 15 20 35 0 36 -33 53 -58
28z"/>
<path d="M1036 2115 c-19 -20 -20 -26 -3 -49 26 -36 84 4 61 42 -15 23 -38 26
-58 7z"/>
<path d="M1672 2118 c-25 -25 -6 -68 30 -68 9 0 22 9 28 19 13 25 13 27 -6 45
-19 19 -36 20 -52 4z"/>
<path d="M1986 2115 c-9 -9 -16 -20 -16 -25 0 -15 32 -41 48 -38 24 5 39 35
26 56 -15 23 -38 26 -58 7z"/>
<path d="M1350 2105 c-14 -17 -5 -51 16 -59 22 -8 54 11 54 32 0 38 -46 56
-70 27z"/>
<path d="M94 2085 c-7 -17 12 -45 31 -45 19 0 36 25 29 44 -8 20 -53 21 -60 1z"/>
<path d="M2610 2075 c0 -31 26 -43 47 -22 21 21 9 47 -22 47 -20 0 -25 -5 -25
-25z"/>
<path d="M561 2079 c-55 -22 -68 -83 -26 -124 68 -69 178 26 113 98 -28 31
-55 39 -87 26z"/>
<path d="M2143 2080 c-54 -22 -65 -88 -23 -130 44 -44 130 -6 130 58 0 27 -31
72 -50 72 -4 0 -14 2 -22 4 -7 3 -23 1 -35 -4z"/>
<path d="M232 2044 c-28 -19 -30 -74 -4 -97 26 -24 67 -21 92 5 25 28 25 48
-1 82 -23 29 -54 33 -87 10z"/>
<path d="M2445 2035 c-28 -27 -30 -37 -14 -68 16 -29 28 -37 60 -37 55 0 82
83 37 114 -32 22 -55 20 -83 -9z"/>
<path d="M874 2026 c-12 -31 0 -51 31 -51 27 0 30 3 30 30 0 25 -4 30 -28 33
-17 2 -29 -2 -33 -12z"/>
<path d="M1190 2021 c-20 -38 13 -71 51 -51 21 12 25 40 7 58 -18 18 -46 14
-58 -7z"/>
<path d="M1512 2028 c-18 -18 -14 -46 7 -58 25 -13 48 -4 56 21 12 38 -35 65
-63 37z"/>
<path d="M1824 2026 c-12 -31 0 -51 31 -51 27 0 30 3 30 30 0 25 -4 30 -28 33
-17 2 -29 -2 -33 -12z"/>
<path d="M692 1977 c-46 -49 -15 -127 49 -127 64 0 97 43 78 100 -19 54 -88
69 -127 27z"/>
<path d="M1967 1988 c-41 -32 -40 -105 2 -127 57 -31 121 2 121 62 0 61 -76
100 -123 65z"/>
<path d="M385 1965 c-28 -27 -31 -45 -14 -78 16 -30 28 -37 66 -37 41 0 77 42
68 80 -14 58 -78 78 -120 35z"/>
<path d="M2282 1967 c-45 -48 -14 -117 51 -117 42 0 67 26 67 68 0 64 -75 95
-118 49z"/>
<path d="M1029 1939 c-10 -20 -9 -25 11 -41 30 -24 63 -8 58 30 -4 37 -51 44
-69 11z"/>
<path d="M1666 1944 c-11 -27 -7 -43 14 -54 15 -8 24 -6 40 10 16 16 18 25 10
40 -13 24 -55 27 -64 4z"/>
<path d="M1345 1930 c-4 -12 -1 -27 5 -35 27 -33 78 -5 65 35 -4 14 -15 20
-35 20 -20 0 -31 -6 -35 -20z"/>
<path d="M105 1916 c-20 -15 -15 -43 10 -52 18 -7 45 12 45 32 0 22 -35 35
-55 20z"/>
<path d="M2616 1914 c-12 -12 -13 -20 -6 -35 12 -22 30 -25 48 -7 18 18 15 36
-7 48 -15 7 -23 6 -35 -6z"/>
<path d="M856 1899 c-20 -16 -26 -29 -26 -59 0 -30 6 -43 26 -59 15 -12 37
-21 49 -21 12 0 34 9 49 21 20 16 26 29 26 59 0 30 -6 43 -26 59 -15 12 -37
21 -49 21 -12 0 -34 -9 -49 -21z"/>
<path d="M1806 1899 c-20 -16 -26 -29 -26 -59 0 -30 6 -43 26 -59 15 -12 37
-21 49 -21 12 0 34 9 49 21 20 16 26 29 26 59 0 30 -6 43 -26 59 -15 12 -37
21 -49 21 -12 0 -34 -9 -49 -21z"/>
<path d="M540 1880 c-26 -26 -26 -81 -2 -103 44 -40 122 -7 122 51 0 60 -78
94 -120 52z"/>
<path d="M2125 1875 c-48 -47 -19 -115 48 -115 42 0 67 26 67 68 0 66 -69 94
-115 47z"/>
<path d="M1189 1854 c-17 -21 0 -48 34 -52 21 -3 28 2 33 22 3 14 3 30 -1 35
-10 16 -51 13 -66 -5z"/>
<path d="M1505 1859 c-4 -5 -4 -21 -1 -35 5 -20 12 -25 33 -22 34 4 51 31 34
52 -15 18 -56 21 -66 5z"/>
<path d="M240 1835 c-20 -24 0 -50 36 -50 26 0 29 4 29 30 0 25 -4 31 -26 33
-15 2 -31 -4 -39 -13z"/>
<path d="M2455 1831 c-9 -31 5 -52 33 -49 33 4 50 31 33 52 -18 22 -58 20 -66
-3z"/>
<path d="M1040 1833 c-34 -12 -50 -37 -50 -75 0 -48 28 -78 73 -78 81 0 108
108 36 145 -30 16 -35 17 -59 8z"/>
<path d="M1665 1829 c-31 -18 -45 -40 -45 -74 0 -55 59 -90 115 -69 23 9 46
60 39 88 -12 47 -70 76 -109 55z"/>
<path d="M714 1808 c-53 -25 -50 -105 5 -128 75 -31 134 58 76 115 -26 27 -47
30 -81 13z"/>
<path d="M1965 1795 c-58 -57 1 -146 76 -115 53 22 55 105 3 129 -37 16 -52
14 -79 -14z"/>
<path d="M387 1782 c-25 -28 -21 -67 9 -91 15 -12 32 -21 39 -21 23 0 65 41
65 64 0 12 -7 32 -16 44 -19 28 -74 30 -97 4z"/>
<path d="M2294 1792 c-23 -15 -34 -50 -24 -77 28 -73 143 -36 124 40 -9 38
-67 59 -100 37z"/>
<path d="M1350 1775 c-26 -32 13 -81 48 -59 34 22 22 74 -18 74 -10 0 -23 -7
-30 -15z"/>
<path d="M99 1734 c-9 -11 -10 -20 -2 -32 14 -22 43 -22 57 1 9 15 7 21 -8 33
-25 18 -31 18 -47 -2z"/>
<path d="M1184 1738 c-22 -10 -44 -47 -44 -74 0 -25 56 -74 85 -74 14 0 37 11
50 25 65 64 -8 163 -91 123z"/>
<path d="M1485 1725 c-16 -15 -25 -36 -25 -55 0 -39 39 -80 75 -80 29 0 85 49
85 74 0 28 -22 64 -47 75 -37 17 -62 13 -88 -14z"/>
<path d="M2616 1735 c-12 -12 -13 -21 -6 -36 13 -23 33 -25 51 -3 9 11 10 20
3 32 -15 23 -29 25 -48 7z"/>
<path d="M851 1704 c-12 -15 -21 -35 -21 -46 0 -27 45 -68 75 -68 30 0 75 41
75 68 0 35 -38 72 -75 72 -24 0 -39 -7 -54 -26z"/>
<path d="M1800 1703 c-37 -47 -2 -113 60 -113 31 0 70 39 70 70 0 10 -9 29
-21 44 -29 36 -80 36 -109 -1z"/>
<path d="M536 1688 c-21 -29 -20 -51 2 -79 24 -28 79 -31 98 -4 20 26 17 69
-4 88 -27 25 -78 22 -96 -5z"/>
<path d="M2126 1694 c-20 -19 -21 -64 -2 -89 19 -27 74 -24 98 4 22 28 23 50
2 79 -18 26 -74 30 -98 6z"/>
<path d="M240 1655 c-20 -24 0 -50 36 -50 26 0 29 4 29 30 0 25 -4 31 -26 33
-15 2 -31 -4 -39 -13z"/>
<path d="M2455 1651 c-9 -31 5 -52 33 -49 33 4 50 31 33 52 -18 22 -58 20 -66
-3z"/>
<path d="M1321 1634 c-12 -15 -21 -37 -21 -49 0 -12 9 -34 21 -49 16 -20 29
-26 59 -26 30 0 43 6 59 26 12 15 21 37 21 49 0 12 -9 34 -21 49 -16 20 -29
26 -59 26 -30 0 -43 -6 -59 -26z"/>
<path d="M1015 1625 c-47 -46 -17 -115 49 -115 41 0 69 29 69 72 0 62 -73 89
-118 43z"/>
<path d="M1649 1632 c-48 -40 -17 -122 47 -122 66 0 96 69 49 115 -29 30 -64
32 -96 7z"/>
<path d="M700 1610 c-11 -11 -20 -30 -20 -43 0 -29 39 -67 68 -67 31 0 62 35
62 68 0 57 -69 83 -110 42z"/>
<path d="M1966 1608 c-9 -12 -16 -33 -16 -45 0 -30 34 -63 63 -63 31 0 67 35
67 65 0 57 -83 88 -114 43z"/>
<path d="M412 1588 c-19 -19 -14 -56 8 -63 24 -8 50 10 50 34 0 19 -19 41 -35
41 -6 0 -16 -5 -23 -12z"/>
<path d="M2300 1585 c-26 -32 13 -81 48 -59 34 22 22 74 -18 74 -10 0 -23 -7
-30 -15z"/>
<path d="M102 1558 c-30 -30 9 -69 44 -43 15 11 17 17 8 32 -14 23 -36 27 -52
11z"/>
<path d="M2610 1551 c-7 -15 -6 -24 6 -36 19 -18 33 -16 48 7 7 12 6 21 -3 32
-18 22 -38 20 -51 -3z"/>
<path d="M1170 1540 c-42 -42 -8 -120 53 -120 58 0 91 85 49 123 -25 23 -78
21 -102 -3z"/>
<path d="M1487 1542 c-40 -44 -7 -122 51 -122 60 0 94 78 52 120 -26 26 -81
26 -103 2z"/>
<path d="M866 1529 c-48 -38 -23 -109 39 -109 37 0 65 28 65 66 0 23 -42 64
-65 64 -7 0 -24 -9 -39 -21z"/>
<path d="M1816 1529 c-50 -39 -24 -109 41 -109 61 0 85 71 37 109 -15 12 -32
21 -39 21 -7 0 -24 -9 -39 -21z"/>
<path d="M552 1514 c-31 -21 -30 -69 3 -90 51 -33 107 13 86 70 -15 37 -52 46
-89 20z"/>
<path d="M2130 1510 c-11 -11 -20 -29 -20 -40 0 -25 34 -60 58 -60 32 0 62 29
62 60 0 53 -62 78 -100 40z"/>
<path d="M258 1493 c-22 -6 -33 -40 -18 -58 24 -29 70 -11 70 27 0 20 -27 36
-52 31z"/>
<path d="M2466 1487 c-36 -26 4 -84 42 -61 23 15 26 38 7 58 -20 19 -26 20
-49 3z"/>
<path d="M1321 1454 c-28 -35 -26 -69 4 -99 49 -50 135 -17 135 50 0 12 -9 34
-21 49 -16 20 -29 26 -59 26 -30 0 -43 -6 -59 -26z"/>
<path d="M1017 1442 c-49 -54 18 -137 78 -98 55 36 35 116 -29 116 -19 0 -40
-8 -49 -18z"/>
<path d="M1644 1435 c-21 -31 -12 -69 21 -91 41 -27 95 4 95 55 0 59 -84 85
-116 36z"/>
<path d="M730 1443 c-40 -14 -53 -69 -22 -96 25 -23 58 -21 82 3 26 26 25 46
-5 75 -25 26 -29 27 -55 18z"/>
<path d="M1989 1436 c-31 -15 -39 -74 -13 -93 41 -30 94 -2 94 49 0 41 -42 64
-81 44z"/>
<path d="M413 1413 c-18 -7 -16 -48 3 -64 31 -26 70 25 44 56 -13 15 -25 17
-47 8z"/>
<path d="M2302 1408 c-32 -32 8 -80 48 -58 34 18 19 70 -20 70 -9 0 -21 -5
-28 -12z"/>
<path d="M100 1375 c-7 -8 -10 -22 -6 -30 7 -20 55 -20 62 0 7 17 -12 45 -31
45 -7 0 -18 -7 -25 -15z"/>
<path d="M2617 1383 c-4 -3 -7 -17 -7 -30 0 -18 5 -23 25 -23 14 0 28 7 31 15
11 27 -30 58 -49 38z"/>
<path d="M1170 1360 c-42 -42 -8 -120 53 -120 58 0 91 85 49 123 -25 23 -78
21 -102 -3z"/>
<path d="M1487 1362 c-40 -44 -7 -122 51 -122 60 0 94 78 52 120 -26 26 -81
26 -103 2z"/>
<path d="M860 1350 c-41 -41 -13 -110 45 -110 58 0 86 69 45 110 -11 11 -31
20 -45 20 -14 0 -34 -9 -45 -20z"/>
<path d="M1812 1350 c-44 -41 -16 -110 43 -110 58 0 86 69 45 110 -26 26 -60
25 -88 0z"/>
<path d="M562 1318 c-28 -28 -1 -75 37 -63 11 3 23 15 26 26 12 38 -35 65 -63
37z"/>
<path d="M2140 1311 c-13 -25 -4 -48 21 -56 38 -12 65 35 37 63 -18 18 -46 14
-58 -7z"/>
<path d="M245 1304 c-19 -20 -16 -43 8 -58 37 -23 77 35 41 61 -23 17 -29 16
-49 -3z"/>
<path d="M2466 1307 c-36 -26 4 -84 42 -61 23 15 26 38 7 58 -20 19 -26 20
-49 3z"/>
<path d="M1354 1300 c-28 -11 -54 -48 -54 -78 0 -33 43 -72 80 -72 38 0 80 39
80 74 0 29 -36 72 -65 79 -11 3 -30 2 -41 -3z"/>
<path d="M1027 1269 c-50 -38 -24 -111 40 -111 29 0 63 33 63 62 0 23 -29 57
-56 64 -13 4 -30 -1 -47 -15z"/>
<path d="M1672 1280 c-54 -22 -51 -100 5 -121 63 -24 111 67 57 110 -30 23
-30 23 -62 11z"/>
<path d="M712 1254 c-42 -29 -18 -104 34 -104 26 0 50 20 59 47 4 17 -1 29
-19 48 -29 29 -43 31 -74 9z"/>
<path d="M1982 1254 c-29 -20 -31 -79 -3 -94 46 -24 91 2 91 53 0 25 -31 57
-55 57 -6 0 -21 -7 -33 -16z"/>
<path d="M404 1226 c-15 -40 21 -81 50 -57 21 17 21 57 0 65 -26 10 -44 7 -50
-8z"/>
<path d="M2302 1228 c-32 -32 8 -80 48 -58 34 18 19 70 -20 70 -9 0 -21 -5
-28 -12z"/>
<path d="M100 1195 c-17 -21 -5 -45 24 -45 27 0 42 26 25 46 -15 18 -33 18
-49 -1z"/>
<path d="M2617 1203 c-4 -3 -7 -17 -7 -30 0 -18 5 -23 25 -23 14 0 28 7 31 15
11 27 -30 58 -49 38z"/>
<path d="M1166 1178 c-23 -32 -20 -65 9 -93 29 -30 64 -32 93 -5 28 26 29 80
4 103 -28 25 -87 22 -106 -5z"/>
<path d="M1487 1182 c-24 -26 -21 -77 5 -102 63 -58 152 27 102 98 -20 28 -83
31 -107 4z"/>
<path d="M868 1169 c-21 -12 -24 -69 -6 -87 7 -7 26 -12 43 -12 40 0 55 16 55
57 0 46 -48 68 -92 42z"/>
<path d="M1816 1164 c-19 -18 -21 -65 -4 -82 7 -7 26 -12 43 -12 40 0 55 16
55 57 0 49 -59 72 -94 37z"/>
<path d="M562 1138 c-18 -18 -14 -46 7 -58 25 -13 48 -4 56 21 12 38 -35 65
-63 37z"/>
<path d="M2140 1131 c-20 -38 13 -71 51 -51 21 12 25 40 7 58 -18 18 -46 14
-58 -7z"/>
<path d="M245 1124 c-19 -20 -16 -43 8 -58 34 -22 73 27 47 59 -16 19 -35 19
-55 -1z"/>
<path d="M2462 1128 c-25 -25 -6 -68 30 -68 9 0 22 9 28 19 13 25 13 27 -6 45
-19 19 -36 20 -52 4z"/>
<path d="M1329 1101 c-36 -36 -37 -73 -4 -106 49 -49 135 -15 135 54 0 20 -9
37 -31 55 -40 34 -64 33 -100 -3z"/>
<path d="M1035 1098 c-27 -15 -35 -28 -35 -59 0 -55 83 -82 114 -37 23 33 19
64 -10 87 -30 24 -41 25 -69 9z"/>
<path d="M1655 1085 c-29 -28 -31 -51 -9 -83 32 -46 114 -18 114 39 0 30 -9
43 -37 58 -31 16 -41 14 -68 -14z"/>
<path d="M722 1058 c-25 -25 -6 -68 30 -68 33 0 43 53 14 72 -16 11 -30 10
-44 -4z"/>
<path d="M1986 1055 c-9 -9 -16 -20 -16 -25 0 -15 32 -41 48 -38 24 5 39 35
26 56 -15 23 -38 26 -58 7z"/>
<path d="M407 1054 c-14 -14 -7 -53 12 -63 26 -14 54 8 49 40 -2 17 -10 25
-28 27 -14 2 -29 0 -33 -4z"/>
<path d="M2300 1045 c-14 -17 -5 -51 16 -59 22 -8 54 11 54 32 0 38 -46 56
-70 27z"/>
<path d="M101 1016 c-6 -7 -9 -21 -5 -30 8 -21 50 -21 58 0 7 19 -10 44 -29
44 -7 0 -18 -6 -24 -14z"/>
<path d="M1190 1017 c-56 -28 -48 -110 13 -131 67 -24 118 78 61 123 -31 24
-40 25 -74 8z"/>
<path d="M1497 1010 c-37 -29 -37 -80 -1 -109 35 -27 59 -26 89 4 63 63 -18
160 -88 105z"/>
<path d="M2614 1015 c-9 -23 3 -45 26 -45 25 0 37 25 20 45 -16 19 -39 19 -46
0z"/>
<path d="M862 988 c-16 -16 -16 -70 0 -86 7 -7 26 -12 43 -12 17 0 36 5 43 12
7 7 12 26 12 43 0 17 -5 36 -12 43 -16 16 -70 16 -86 0z"/>
<path d="M1812 988 c-7 -7 -12 -26 -12 -43 0 -17 5 -36 12 -43 7 -7 26 -12 43
-12 17 0 36 5 43 12 7 7 12 26 12 43 0 17 -5 36 -12 43 -16 16 -70 16 -86 0z"/>
<path d="M562 958 c-18 -18 -14 -46 7 -58 25 -13 48 -4 56 21 12 38 -35 65
-63 37z"/>
<path d="M2140 951 c-20 -38 13 -71 51 -51 21 12 25 40 7 58 -18 18 -46 14
-58 -7z"/>
<path d="M246 945 c-19 -20 -20 -26 -3 -49 26 -36 84 4 61 42 -15 23 -38 26
-58 7z"/>
<path d="M2462 948 c-25 -25 -6 -68 30 -68 9 0 22 9 28 20 22 40 -26 80 -58
48z"/>
<path d="M1343 938 c-28 -13 -46 -58 -37 -92 14 -57 86 -74 129 -31 40 40 30
96 -22 123 -26 14 -41 14 -70 0z"/>
<path d="M1020 910 c-43 -43 -14 -110 48 -110 59 0 83 72 36 109 -33 26 -58
27 -84 1z"/>
<path d="M1655 905 c-44 -43 -21 -105 39 -105 60 0 88 68 46 110 -27 27 -56
25 -85 -5z"/>
<path d="M722 878 c-28 -28 -1 -75 38 -63 14 4 20 15 20 35 0 36 -33 53 -58
28z"/>
<path d="M1986 875 c-9 -9 -16 -20 -16 -25 0 -15 32 -41 48 -38 24 5 39 35 26
56 -15 23 -38 26 -58 7z"/>
<path d="M404 866 c-12 -31 0 -51 31 -51 27 0 30 3 30 30 0 25 -4 30 -28 33
-17 2 -29 -2 -33 -12z"/>
<path d="M2300 865 c-20 -24 -3 -55 30 -55 20 0 31 6 35 20 8 25 -10 50 -35
50 -10 0 -23 -7 -30 -15z"/>
<path d="M96 835 c-9 -24 4 -45 29 -45 27 0 40 26 24 46 -15 18 -45 18 -53 -1z"/>
<path d="M1175 825 c-63 -63 18 -160 88 -105 37 29 37 80 1 109 -35 27 -59 26
-89 -4z"/>
<path d="M1496 829 c-36 -29 -36 -80 1 -109 70 -55 151 42 88 105 -30 30 -54
31 -89 4z"/>
<path d="M2614 835 c-9 -23 3 -45 25 -45 21 0 33 22 25 45 -4 8 -15 15 -25 15
-11 0 -22 -7 -25 -15z"/>
<path d="M874 786 c-12 -31 0 -51 31 -51 27 0 30 3 30 30 0 25 -4 30 -28 33
-17 2 -29 -2 -33 -12z"/>
<path d="M1824 786 c-12 -31 0 -51 31 -51 27 0 30 3 30 30 0 25 -4 30 -28 33
-17 2 -29 -2 -33 -12z"/>
<path d="M554 764 c-8 -31 6 -47 36 -42 53 7 47 68 -6 68 -17 0 -25 -7 -30
-26z"/>
<path d="M2140 769 c-14 -26 3 -49 36 -49 28 0 38 14 30 46 -8 31 -50 33 -66
3z"/>
<path d="M244 756 c-10 -26 4 -48 28 -44 17 2 23 10 23 28 0 18 -6 26 -23 28
-13 2 -25 -3 -28 -12z"/>
<path d="M1344 761 c-11 -5 -27 -23 -34 -41 -11 -27 -11 -36 3 -65 20 -41 62
-54 105 -31 90 47 20 176 -74 137z"/>
<path d="M2464 756 c-10 -26 4 -48 28 -44 17 2 23 10 23 28 0 18 -6 26 -23 28
-13 2 -25 -3 -28 -12z"/>
<path d="M1020 730 c-25 -25 -26 -72 -2 -93 40 -36 112 -6 112 46 0 29 -39 67
-68 67 -12 0 -31 -9 -42 -20z"/>
<path d="M1655 725 c-14 -13 -25 -33 -25 -45 0 -29 35 -60 68 -60 57 0 83 69
42 110 -27 27 -56 25 -85 -5z"/>
<path d="M722 698 c-28 -28 -1 -75 36 -63 23 7 33 36 20 59 -11 19 -39 21 -56
4z"/>
<path d="M1986 695 c-9 -9 -16 -20 -16 -25 0 -15 32 -41 48 -38 24 5 39 35 26
56 -15 23 -38 26 -58 7z"/>
<path d="M410 685 c-15 -18 -7 -43 16 -52 24 -9 46 24 33 48 -12 23 -32 24
-49 4z"/>
<path d="M2312 688 c-25 -25 0 -64 32 -52 21 8 21 50 0 58 -20 8 -18 8 -32 -6z"/>
<path d="M1175 645 c-30 -29 -32 -64 -7 -96 39 -47 122 -17 122 45 0 37 -7 49
-37 65 -33 17 -51 14 -78 -14z"/>
<path d="M1505 658 c-28 -16 -35 -28 -35 -64 0 -39 30 -67 72 -67 64 0 92 83
42 122 -30 24 -50 26 -79 9z"/>
<path d="M885 617 c-10 -8 -16 -23 -13 -38 2 -19 9 -24 33 -24 25 0 31 4 33
27 4 34 -26 54 -53 35z"/>
<path d="M1835 617 c-10 -8 -16 -23 -13 -38 2 -19 9 -24 33 -24 25 0 31 4 33
27 4 34 -26 54 -53 35z"/>
<path d="M573 603 c-19 -7 -16 -50 4 -57 24 -10 51 20 37 41 -12 19 -23 24
-41 16z"/>
<path d="M2152 598 c-25 -25 0 -64 32 -52 21 8 21 50 0 58 -20 8 -18 8 -32 -6z"/>
<path d="M1333 575 c-46 -32 -36 -113 17 -135 34 -14 63 -6 90 23 61 65 -33
164 -107 112z"/>
<path d="M1031 522 c-14 -27 8 -55 40 -50 19 2 24 9 24 33 0 25 -4 31 -27 33
-18 2 -30 -3 -37 -16z"/>
<path d="M1664 526 c-10 -27 1 -51 26 -54 31 -5 53 23 39 49 -12 22 -57 25
-65 5z"/>
<path d="M1984 505 c-7 -17 12 -45 31 -45 19 0 36 25 29 44 -8 20 -53 21 -60
1z"/>
<path d="M722 493 c-13 -26 -4 -43 24 -43 29 0 41 24 24 45 -17 20 -37 19 -48
-2z"/>
<path d="M1177 462 c-23 -25 -21 -68 3 -92 27 -27 56 -25 86 6 20 19 24 31 19
52 -12 51 -75 71 -108 34z"/>
<path d="M1490 460 c-27 -27 -25 -56 5 -85 43 -44 105 -21 105 39 0 60 -68 88
-110 46z"/>
<path d="M881 426 c-16 -20 -3 -46 24 -46 13 0 26 7 29 16 7 19 -10 44 -29 44
-7 0 -18 -6 -24 -14z"/>
<path d="M1831 426 c-16 -20 -3 -46 24 -46 13 0 26 7 29 16 7 19 -10 44 -29
44 -7 0 -18 -6 -24 -14z"/>
<path d="M1325 385 c-14 -13 -25 -36 -25 -50 0 -32 49 -85 78 -85 34 0 82 48
82 81 0 40 -40 79 -80 79 -19 0 -40 -9 -55 -25z"/>
<path d="M1042 348 c-16 -16 -15 -33 2 -47 30 -25 67 16 40 44 -19 18 -26 19
-42 3z"/>
<path d="M1683 353 c-19 -7 -16 -50 4 -57 24 -10 51 20 37 41 -12 19 -23 24
-41 16z"/>
<path d="M1194 256 c-10 -26 4 -48 28 -44 17 2 23 10 23 28 0 18 -6 26 -23 28
-13 2 -25 -3 -28 -12z"/>
<path d="M1514 256 c-10 -26 4 -48 28 -44 17 2 23 10 23 28 0 18 -6 26 -23 28
-13 2 -25 -3 -28 -12z"/>
<path d="M1342 204 c-46 -32 -18 -114 39 -114 46 0 75 42 59 84 -16 44 -60 57
-98 30z"/>
</g>
</svg>
